<svg version="1.1" xmlns="http://www.w3.org/2000/svg" xmlns:xlink="http://www.w3.org/1999/xlink" width="81.05713" height="81.12" viewBox="0,0,81.05713,81.12"><defs><linearGradient x1="240" y1="139.44" x2="240" y2="220.56" gradientUnits="userSpaceOnUse" id="color-1"><stop offset="0" stop-color="#d92a2a"/><stop offset="1" stop-color="#4c1917"/></linearGradient></defs><g transform="translate(-199.47143,-139.44)"><g data-paper-data="{&quot;isPaintingLayer&quot;:true}" fill="url(#color-1)" fill-rule="nonzero" stroke="none" stroke-width="1" stroke-linecap="butt" stroke-linejoin="miter" stroke-miterlimit="10" stroke-dasharray="" stroke-dashoffset="0" style="mix-blend-mode: normal"><path d="M231.67784,212.31357c-29.78872,-7.68221 -32.23306,-8.32687 -32.2062,-8.46118c0.02686,-0.16117 16.51944,-64.38553 16.5463,-64.41239c0,0 14.50488,3.7068 32.2062,8.27315c17.70132,4.56635 32.23306,8.27315 32.25992,8.27315c0.05372,0 0.05372,0.10744 0.02686,0.24175c-0.05372,0.40291 -16.51944,64.27809 -16.57316,64.33181c0,0.02686 -14.53174,-3.67994 -32.25992,-8.24629zM247.90181,175.4873c0.02686,-0.1343 -0.6178,-0.32233 -6.23172,-1.77282c-3.43819,-0.88641 -6.31231,-1.58479 -6.33917,-1.55793c-0.08058,0.08058 -3.25017,12.51717 -3.22331,12.54403c0.05372,0.05372 12.54403,3.27703 12.57089,3.25017c0,-0.02686 0.72524,-2.79353 1.61165,-6.178c0.85955,-3.38447 1.58479,-6.20486 1.61165,-6.28545z"/></g></g></svg>