<svg version="1.1" xmlns="http://www.w3.org/2000/svg" xmlns:xlink="http://www.w3.org/1999/xlink" width="10.08117" height="16.7" viewBox="0,0,10.08117,16.7"><g transform="translate(-234.95941,-171.65)"><g data-paper-data="{&quot;isPaintingLayer&quot;:true}" fill-rule="nonzero" stroke="none" stroke-width="1" stroke-linecap="butt" stroke-linejoin="miter" stroke-miterlimit="10" stroke-dasharray="" stroke-dashoffset="0" style="mix-blend-mode: normal"><path d="M240.50386,187.25h-0.6c0,0.1 -0.1,0.1 -0.1,0.2c-0.5,0.5 -1.2,0.9 -1.9,0.9h-0.2c-1.4,0 -2.6,-1.1 -2.7,-2.6v-0.1c0,-0.5 -0.1,-1.4 0,-2.4c0,-0.7 0.1,-1.8 0.1,-1.8c0,-0.7 0.3,-1.3 0.7,-1.8c-0.4,-0.8 -0.5,-1.7 -0.3,-2.7v-0.2c0.1,-0.6 0.2,-1.5 0.6,-2.4c0.7,-1.3 2,-2 3.5,-2h0.7c0.5,-0.4 1.1,-0.7 1.8,-0.7c1.5,0 2.46921,1.06921 2.46921,2.56921c0,0 0.11862,0.49985 0.19213,0.5212c0.14257,0.18974 -0.12371,1.82935 -0.11374,2.12662c0.01252,0.3733 0.2713,0.91934 0.35417,1.3183c0.08354,0.40211 -0.00888,0.83061 -0.00888,1.31249c-0.12567,0.61393 -0.04216,1.51865 -0.1775,2.45302c-0.1159,0.80015 -0.43847,1.62206 -0.67291,2.30174c-0.15484,0.44892 -0.33052,0.85947 -0.56979,1.23641c-0.27964,0.44055 -0.62504,0.83518 -0.8048,1.19148c0,0 -0.00248,0.00496 -0.00597,0.01378c-0.70986,0.35182 -1.51988,0.55576 -2.26192,0.55576z" fill="#f9a83a"/><path d="M239.52222,179.3c1.2,0.2 3.7,0.6 3.7,3.1c0,0.7 -0.4,1.5 -1,2c-0.7,0.6 -1.6,0.9 -2.5,0.7c-0.7,-0.1 -1.3,-0.4 -1.7,-0.7v1.1c0,0.3 -0.3,0.6 -0.6,0.6c-0.3,0 -0.6,-0.3 -0.6,-0.6c0,-0.1 -0.1,-1 0,-2.2c0.1,-0.7 0.1,-1.9 0.1,-1.9c0,-0.3 0.3,-0.6 0.6,-0.6c0.3,0 0.6,0.3 0.6,0.6v0.2c0,0.3 0.1,0.8 0.2,1.2c0.2,0.4 0.8,0.7 1,0.8c0.2,0 0.3,0.1 0.5,0.1c0.6,0.1 1.2,0 1.6,-0.4c0.4,-0.3 0.6,-0.7 0.6,-1.1c0,-1 -1.1,-1.3 -2.7,-1.6c-1.5,-0.3 -2.1,-1.5 -1.9,-3.4v-0.2c0.1,-1 0.3,-2.7 2.2,-2.4c0.7,0 1.3,0.5 1.8,1v-1.1c0,-0.3 0.3,-0.6 0.6,-0.6c0.3,0 0.6,0.3 0.6,0.6c0,0.1 -0.2,3.9 -0.2,3.9c-0.1,0.3 -0.4,0.6 -0.7,0.5c-0.3,-0.1 -0.5,-0.3 -0.5,-0.5v-0.4c-0.1,-0.3 -0.1,-0.6 -0.3,-1c-0.2,-0.6 -0.6,-0.9 -0.8,-1.1c-0.2,-0.2 -0.4,-0.3 -0.6,-0.3c-0.6,0 -0.7,0.3 -0.9,1.5v0.2c-0.2,1.4 0.2,1.9 0.9,2" fill="#ffffff"/><path fill="#ffffff"/><path fill="#ffffff"/></g></g></svg>